<svg id="Layer_1" data-name="Layer 1" xmlns="http://www.w3.org/2000/svg" viewBox="0 0 1000 1000"><path d="M493.91,467.36a235.53,235.53,0,0,0-91.77,11.82,239.56,239.56,0,0,0-70.47,38.2c-26.82,20.84-46.34,47.7-64.07,76.22s-36.2,56.93-54.38,85.34c-13.23,20.69-26.56,41.31-39.72,62a5.35,5.35,0,0,0-.11,4.48c7.26,14.48,14.67,28.89,22.09,43.29q21.83,42.32,43.69,84.61c5.21,10.08,10.38,20.18,15.87,30.86l278.24-435C519.12,468.58,506.5,468.16,493.91,467.36Z" fill="#b7391f"/><path d="M224.91,589c3-21.52.51-42.71-8.18-62.68-20.46-47-56.13-73.37-107.6-76.89-27.89-1.9-55.85-2.74-83.77-4-1.9-.09-3.8,0-6.36,0L157.6,714.74c1.77-2.7,3.08-4.63,4.34-6.6,13.78-21.53,27.32-43.22,41.4-64.55C214.39,626.85,222.15,608.83,224.91,589Z" fill="#b7391f"/><path d="M798.89,106.32c-112.75-4.22-207.41,83.21-211.63,196a196.38,196.38,0,0,0,26.53,108.53c-10.25,38-33.16,98.88-75.37,124.21-2.41,1.2-1.21,4.22,1.2,4.22,30.75-4.83,106.73-18.09,164.61-44.62a203.12,203.12,0,0,0,79,19.3C896,518.13,990.63,430.71,994.85,318S911.65,110.54,798.89,106.32Zm74.77,232.14H819.39v54.26a28.34,28.34,0,1,1-56.68,0V338.46H708.45a28.34,28.34,0,0,1,0-56.68h54.26V227.51c0-15.07,12.67-27.73,28.35-27.73s28.33,12.66,28.33,27.73v54.27h54.27c15.07,0,27.73,12.66,27.73,28.34S888.73,338.46,873.66,338.46Z" fill="#b7391f"/><path d="M479.91,457a235.53,235.53,0,0,0-91.77,11.83A239.65,239.65,0,0,0,317.67,507c-26.82,20.84-46.34,47.71-64.07,76.23s-36.2,56.92-54.37,85.33c-13.24,20.69-26.57,41.32-39.72,62.05a5.39,5.39,0,0,0-.12,4.48c7.26,14.49,14.67,28.9,22.1,43.3q21.81,42.32,43.69,84.6c5.2,10.08,10.37,20.18,15.86,30.87l278.24-435C505.12,458.17,492.5,457.76,479.91,457Z" fill="#fff"/><path d="M210.92,578.62c3-21.51.5-42.71-8.19-62.68-20.45-47-56.13-73.37-107.6-76.88-27.89-1.91-55.84-2.75-83.77-4-1.9-.09-3.8,0-6.36,0L143.6,704.33c1.78-2.69,3.09-4.63,4.35-6.6,13.77-21.53,27.31-43.21,41.39-64.54C200.39,616.44,208.15,598.43,210.92,578.62Z" fill="#fff"/><path d="M784.9,95.91c-112.75-4.22-207.41,83.21-211.64,196A196.36,196.36,0,0,0,599.79,400.4c-10.25,38-33.16,98.89-75.37,124.21-2.41,1.21-1.21,4.22,1.21,4.22,30.75-4.82,106.72-18.09,164.6-44.62a203.17,203.17,0,0,0,79,19.3c112.75,4.22,207.41-83.21,211.64-196S897.65,100.14,784.9,95.91Zm74.76,232.14H805.4v54.27a28.35,28.35,0,0,1-56.69,0V328.05H694.46a28.34,28.34,0,0,1,0-56.68h54.25V217.11c0-15.08,12.67-27.74,28.35-27.74S805.4,202,805.4,217.11v54.26h54.26c15.08,0,27.74,12.66,27.74,28.34S874.74,328.05,859.66,328.05Z" fill="#fff"/></svg>